<?xml version="1.0" encoding="UTF-8" standalone="no"?>
<svg
   viewBox="0 0 24 24"
   width="24"
   height="24"
   version="1.1"
   id="svg1"
   sodipodi:docname=":anki:.svg"
   inkscape:version="1.4.2 (ebf0e940d0, 2025-05-08)"
   xml:space="preserve"
   xmlns:inkscape="http://www.inkscape.org/namespaces/inkscape"
   xmlns:sodipodi="http://sodipodi.sourceforge.net/DTD/sodipodi-0.dtd"
   xmlns="http://www.w3.org/2000/svg"
   xmlns:svg="http://www.w3.org/2000/svg"><defs
     id="defs1" /><sodipodi:namedview
     id="namedview1"
     pagecolor="#ffffff"
     bordercolor="#000000"
     borderopacity="0.25"
     inkscape:showpageshadow="2"
     inkscape:pageopacity="0.0"
     inkscape:pagecheckerboard="0"
     inkscape:deskcolor="#d1d1d1"
     inkscape:zoom="13.714925"
     inkscape:cx="11.811949"
     inkscape:cy="3.281097"
     inkscape:window-width="1078"
     inkscape:window-height="1851"
     inkscape:window-x="0"
     inkscape:window-y="0"
     inkscape:window-maximized="1"
     inkscape:current-layer="svg1" /><path
     style="fill:#000000"
     d="M 9.2020486,22.837634 C 8.4975923,22.741071 7.9953131,22.413267 7.5782795,21.777909 7.2876824,21.335178 7.295772,21.384842 6.9909731,18.172298 6.9310232,17.540432 6.8631486,16.827379 6.8401407,16.587734 L 6.7983082,16.152017 6.0206275,15.727455 C 2.5140999,13.813125 2.2472941,13.654808 1.9400236,13.306114 1.4978606,12.804342 1.337937,12.220505 1.458794,11.549279 1.5419113,11.087655 1.6987296,10.77132 1.9982643,10.461056 2.3983714,10.046617 2.256498,10.115783 5.5434143,8.7327196 6.1558379,8.4750249 6.7854777,8.2051466 6.9426138,8.1329899 L 7.2283159,8.0017959 7.3072513,7.6344447 C 7.3506657,7.4324015 7.5373357,6.5433202 7.7220735,5.6587084 8.3169875,2.8099782 8.3352921,2.7525521 8.7924907,2.3005417 9.2534218,1.844841 9.6437781,1.6655417 10.237061,1.637018 c 0.209175,-0.010057 0.479191,0.00102 0.636285,0.026104 0.301308,0.04811 0.702694,0.2170143 0.887107,0.3732985 0.155752,0.1319949 1.751518,1.8466879 2.759305,2.9649459 l 0.792538,0.8794143 0.356067,-0.021977 c 0.195836,-0.012087 0.706023,-0.062269 1.133747,-0.1115158 0.427725,-0.049246 1.135591,-0.1288041 1.573036,-0.1767948 0.437446,-0.047991 0.930566,-0.1040244 1.095823,-0.1245195 0.165257,-0.020495 0.526918,-0.047064 0.803691,-0.059043 0.5823,-0.025202 0.811882,0.01788 1.228884,0.2306068 0.335832,0.1713192 0.770282,0.6054019 0.943371,0.9425739 0.158885,0.3095019 0.205475,0.5288587 0.205475,0.9674249 0,0.667229 -0.02877,0.724666 -1.882263,3.7579951 l -0.900251,1.473301 0.25226,0.50625 c 0.276859,0.555618 1.388973,2.913211 1.731196,3.669997 l 0.215798,0.477213 -0.0012,0.547911 c -0.0012,0.539299 -0.0031,0.552186 -0.117338,0.819836 -0.259228,0.607173 -0.71755,1.037552 -1.34972,1.267429 -0.196728,0.07154 -0.292283,0.08292 -0.687997,0.08198 -0.497105,-0.0012 -0.70218,-0.03728 -2.580486,-0.454186 -0.687694,-0.152641 -1.286117,-0.283946 -1.923988,-0.422156 l -0.722117,-0.156464 -0.143936,0.09908 c -0.145426,0.100105 -0.886835,0.745063 -2.052789,1.785737 -1.506611,1.34473 -1.723734,1.526103 -1.982075,1.655721 -0.349772,0.175492 -0.8863667,0.25789 -1.3053934,0.200452 z m 0.8334444,-3.012765 c 0.321783,-0.277048 0.883914,-0.772569 1.24918,-1.101157 2.042529,-1.837428 2.257293,-1.988237 2.928916,-2.056718 0.290729,-0.02964 0.894931,0.06062 1.934562,0.289006 0.223584,0.04912 0.724658,0.159302 1.113498,0.244856 0.38884,0.08555 1.041032,0.227927 1.449314,0.316385 0.408282,0.08846 0.770169,0.167149 0.804193,0.174867 0.03402,0.0077 0.06186,0.0089 0.06186,0.0026 0,-0.02846 -0.18245,-0.423039 -0.866117,-1.873125 -1.169675,-2.480928 -1.217224,-2.594526 -1.242864,-2.969326 -0.02989,-0.436912 0.03092,-0.864993 0.159718,-1.12428 0.115877,-0.233283 0.580435,-1.01613 1.731065,-2.9170923 0.392198,-0.6479513 0.713086,-1.1943841 0.713086,-1.2142951 0,-0.040763 -0.122833,-0.031255 -1.272568,0.098507 -0.418004,0.047177 -1.189498,0.1342217 -1.714433,0.1934334 -1.73993,0.196261 -1.972939,0.2117276 -2.314218,0.1536129 C 14.583053,8.0101898 14.374221,7.9444684 14.218093,7.8682347 13.804906,7.6664853 13.690052,7.5492218 10.953613,4.5352819 10.614359,4.1616235 10.32674,3.8559031 10.314461,3.8559031 c -0.01228,0 -0.07348,0.2505369 -0.135999,0.5567487 C 10.115942,4.7188635 9.9933582,5.3193568 9.9060537,5.7470812 9.2771957,8.8279994 9.2310916,8.9790026 8.7658685,9.4814865 8.4481037,9.8247019 8.4038773,9.8453918 4.0675884,11.679436 c -0.1409546,0.05962 -0.2562811,0.117387 -0.2562811,0.128379 0,0.01099 0.027837,0.03734 0.061861,0.05855 0.066628,0.04153 2.1165156,1.167271 2.5539742,1.402568 1.1346155,0.610279 1.7635239,1.009944 1.9958414,1.268337 0.2230268,0.24806 0.4393108,0.711463 0.4994493,1.070105 0.043131,0.257217 0.2065748,1.853771 0.3512393,3.430981 0.030315,0.330515 0.070301,0.736146 0.088858,0.901403 0.018557,0.165257 0.033784,0.320352 0.033839,0.344654 5.48e-5,0.0243 0.012242,0.04419 0.027082,0.04419 0.01484,0 0.2902591,-0.226676 0.612042,-0.503725 z"
     id="path1" /></svg>
