<?xml version="1.0" encoding="UTF-8" standalone="no"?>
<svg
   version="1.0"
   width="512.000000pt"
   height="512.000000pt"
   viewBox="0 0 512.000000 512.000000"
   preserveAspectRatio="xMidYMid meet"
   id="svg2"
   sodipodi:docname="anki.svg"
   inkscape:version="1.4 (e7c3feb100, 2024-10-09)"
   xmlns:inkscape="http://www.inkscape.org/namespaces/inkscape"
   xmlns:sodipodi="http://sodipodi.sourceforge.net/DTD/sodipodi-0.dtd"
   xmlns="http://www.w3.org/2000/svg"
   xmlns:svg="http://www.w3.org/2000/svg">
  <defs
     id="defs2" />
  <sodipodi:namedview
     id="namedview2"
     pagecolor="#ffffff"
     bordercolor="#666666"
     borderopacity="1.0"
     inkscape:showpageshadow="2"
     inkscape:pageopacity="0.0"
     inkscape:pagecheckerboard="0"
     inkscape:deskcolor="#d1d1d1"
     inkscape:document-units="pt"
     inkscape:zoom="0.67127822"
     inkscape:cx="436.48072"
     inkscape:cy="198.87432"
     inkscape:window-width="1277"
     inkscape:window-height="1131"
     inkscape:window-x="0"
     inkscape:window-y="0"
     inkscape:window-maximized="1"
     inkscape:current-layer="svg2" />
  <metadata
     id="metadata1">
Created by potrace 1.16, written by Peter Selinger 2001-2019
</metadata>
  <rect
     style="font-variation-settings:normal;opacity:1;vector-effect:none;fill:#000000;fill-opacity:1;fill-rule:evenodd;stroke:#000000;stroke-width:0.749999;stroke-linecap:round;stroke-linejoin:round;stroke-miterlimit:4;stroke-dasharray:none;stroke-dashoffset:0;stroke-opacity:1;-inkscape-stroke:none;stop-color:#000000;stop-opacity:1"
     id="rect2"
     width="512"
     height="512"
     x="0"
     y="0" />
  <path
     d="M 0,256 V 512 H 256 512 V 256 0 H 256 0 Z M 240.9,37.8 c 3,1.2 7.7,3.6 10.3,5.4 3.7,2.5 54,57 74.8,80.9 1.4,1.7 4.3,1.4 52.5,-4.2 28.1,-3.2 54,-5.9 57.6,-5.9 17.5,0 34.1,10.4 42,26.4 3,6.3 3.4,8 3.7,17.1 0.6,15.4 -0.2,17.1 -31.6,68.4 l -27.2,44.4 2,3.4 c 3.1,5.3 42.6,89.3 44,93.5 1.9,6.1 1.5,20.5 -0.9,27.2 -6.8,19.4 -24.2,31.8 -44.6,31.8 -6.5,0 -17.3,-2.1 -57.6,-11 -27.3,-6.1 -50.5,-11.2 -51.7,-11.4 -1.5,-0.2 -11.9,8.6 -40.9,34.6 -21.3,19.2 -40.8,36.2 -43.3,37.8 -14.6,9.3 -36.3,9.3 -51,-0.2 -6.8,-4.4 -14.3,-12.8 -18,-20.3 -3.4,-6.9 -3.2,-5.8 -10.8,-85.1 l -2.7,-28.9 -47,-25.7 C 61.4,294.7 52.6,289.4 47.9,284.9 42,279.2 37.4,271.5 35.3,264 c -2.9,-10.5 -0.8,-25.3 5,-35.2 3.3,-5.8 12.2,-14 18.3,-17.1 2.7,-1.3 25.6,-11.1 50.9,-21.7 25.3,-10.5 46.3,-19.5 46.7,-19.9 0.4,-0.3 5.5,-23.7 11.2,-51.8 7.6,-37.1 11.3,-52.8 13.2,-56.8 5.4,-11.5 17.4,-21.3 30.5,-25 7.6,-2.1 22.6,-1.4 29.8,1.3 z"
     id="path1"
     style="fill:#ffffff;fill-opacity:1;stroke:#ffffff;stroke-width:0.1;stroke-opacity:1" />
  <path
     d="m 220.34868,86.83519 c -0.6,2.7 -5.1,24.99999 -10.2,49.79999 -9.8,48.2 -11.1,52.5 -18.7,62.1 -2.3,2.8 -6.5,6.7 -9.4,8.6 -3,2 -26.2,12.3 -51.6,22.9 -25.5,10.7 -46.3,19.6 -46.3,19.9 0.1,0.3 20,11.3 44.2,24.5 49.2,26.7 52.8,29.2 59.1,41.2 1.9,3.8 4,8.6 4.6,10.8 0.5,2.2 3.1,26 5.6,53 2.5,26.9 4.7,49.6 4.8,50.3 0.1,0.8 18,-14.7 39.7,-34.2 40.8,-36.7 45.1,-40 56,-42.5 10.1,-2.3 16.2,-1.5 65.6,9.5 26.4,5.8 49.2,10.8 50.7,11.1 l 2.8,0.6 -3.4,-7.4 c -1.9,-4.1 -11.5,-24.5 -21.4,-45.4 -9.9,-20.9 -18.5,-40.1 -19.2,-42.7 -0.9,-3 -1.2,-8.3 -0.9,-14.5 0.3,-7.9 0.9,-10.9 3.1,-15.6 1.4,-3.2 13.9,-24.2 27.7,-46.8 13.8,-22.6 25,-41.2 24.8,-41.4 -0.2,-0.2 -9.7,0.8 -21.3,2.1 -85.3,9.7 -83.2,9.5 -89.5,8.4 -17.4,-3.2 -19,-4.5 -59.9,-49.9 -19.4,-21.49999 -35.4,-39.09999 -35.6,-39.09999 -0.2,0 -0.8,2.1 -1.3,4.7 z"
     id="path2"
     style="fill:#ffffff;fill-opacity:1;stroke:none;stroke-width:0.1" />
</svg>
