<?xml version="1.0" encoding="UTF-8" standalone="no"?>
<!-- Created with Inkscape (http://www.inkscape.org/) -->

<svg
   width="10.00001mm"
   height="9.9439859mm"
   viewBox="0 0 10.00001 9.9439858"
   version="1.1"
   id="svg1"
   xml:space="preserve"
   inkscape:version="1.4.2 (ebf0e940d0, 2025-05-08)"
   sodipodi:docname="appflwoy.svg"
   xmlns:inkscape="http://www.inkscape.org/namespaces/inkscape"
   xmlns:sodipodi="http://sodipodi.sourceforge.net/DTD/sodipodi-0.dtd"
   xmlns="http://www.w3.org/2000/svg"
   xmlns:svg="http://www.w3.org/2000/svg"><sodipodi:namedview
     id="namedview1"
     pagecolor="#ffffff"
     bordercolor="#000000"
     borderopacity="0.25"
     inkscape:showpageshadow="2"
     inkscape:pageopacity="0.0"
     inkscape:pagecheckerboard="0"
     inkscape:deskcolor="#d1d1d1"
     inkscape:document-units="mm"
     inkscape:zoom="6.1932099"
     inkscape:cx="9.3650952"
     inkscape:cy="43.919067"
     inkscape:window-width="1896"
     inkscape:window-height="1011"
     inkscape:window-x="0"
     inkscape:window-y="0"
     inkscape:window-maximized="1"
     inkscape:current-layer="layer1" /><defs
     id="defs1" /><g
     inkscape:label="Layer 1"
     inkscape:groupmode="layer"
     id="layer1"
     transform="translate(-71.870634,-32.526023)"><path
       style="fill:#000000;stroke-width:0.278911"
       d="m 75.461415,42.464956 c -0.06887,-0.0039 -0.137346,-0.0096 -0.152182,-0.0123 -0.01483,-0.0028 -0.04612,-0.0079 -0.06958,-0.01088 -0.194255,-0.02676 -0.392119,-0.07153 -0.599095,-0.135443 -0.102397,-0.03164 -0.132112,-0.04235 -0.301437,-0.108823 -0.305285,-0.119804 -0.617688,-0.28654 -0.876482,-0.46785 -0.09413,-0.06594 -0.278431,-0.208096 -0.337591,-0.260381 -0.134572,-0.11894 -0.347619,-0.341785 -0.435303,-0.455337 -0.211011,-0.273253 -0.354798,-0.499771 -0.491607,-0.774464 -0.07318,-0.146944 -0.115884,-0.237902 -0.117493,-0.250427 -3.37e-4,-0.0025 -0.0057,-0.01297 -0.01054,-0.02319 -0.0057,-0.01031 -0.01922,-0.04569 -0.03042,-0.07884 -0.01112,-0.03315 -0.02403,-0.06863 -0.02853,-0.07884 -0.02327,-0.05287 -0.08124,-0.26303 -0.101019,-0.366367 -0.05263,-0.274902 -0.05266,-0.581095 -1.45e-4,-0.756569 0.0044,-0.01567 0.0086,-0.03943 0.0086,-0.05279 0,-0.01335 0.0042,-0.02688 0.0094,-0.03004 0.0044,-0.003 0.0094,-0.01297 0.0094,-0.02194 0,-0.02205 0.05684,-0.161415 0.09339,-0.229027 0.101436,-0.187626 0.243639,-0.345638 0.430638,-0.478644 0.10741,-0.07642 0.306067,-0.155266 0.431286,-0.1712 0.149641,-0.01904 0.382119,-0.0044 0.514764,0.02989 0.03064,0.0081 0.06926,0.01699 0.08589,0.0196 0.01664,0.0025 0.03255,0.0085 0.03532,0.01297 0.0028,0.0044 0.01534,0.0082 0.02787,0.0082 0.0123,0 0.03001,0.0038 0.03888,0.0088 0.0088,0.0057 0.05157,0.02172 0.09495,0.03754 0.08317,0.03036 0.308546,0.138551 0.313805,0.150621 0.0017,0.0038 0.0068,0.0072 0.01123,0.0072 0.01548,0 0.161995,0.09667 0.28242,0.186289 0.225349,0.167759 0.402327,0.342684 0.558217,0.551726 0.191666,0.25701 0.649871,0.919439 0.846405,1.223649 0.08165,0.12632 0.27879,0.44927 0.27879,0.456618 0,0.0023 0.0078,0.01535 0.01712,0.02888 0.01775,0.02554 0.04289,0.07057 0.15388,0.275387 0.07502,0.138511 0.07164,0.131779 0.137888,0.273266 0.125245,0.267542 0.199431,0.474573 0.23924,0.667805 0.03065,0.148803 0.03129,0.328429 0.0014,0.423122 -0.02836,0.09012 -0.08232,0.168081 -0.148254,0.214159 -0.06115,0.04273 -0.143659,0.08529 -0.211251,0.108985 -0.02549,0.0089 -0.05471,0.01953 -0.06493,0.02363 -0.01031,0.0039 -0.04151,0.0116 -0.06957,0.01729 -0.201873,0.03937 -0.365962,0.05023 -0.575044,0.03804 z m 2.76859,-0.125169 c -0.31737,-0.04529 -0.571984,-0.162308 -0.770487,-0.354097 -0.209052,-0.201976 -0.293598,-0.348338 -0.35253,-0.610275 -0.01537,-0.0684 -0.01737,-0.346415 -0.0029,-0.426091 0.01459,-0.08092 0.03635,-0.18162 0.0463,-0.213887 0.05528,-0.17943 0.0772,-0.237022 0.135854,-0.357085 0.122232,-0.250204 0.274565,-0.468582 0.484008,-0.693922 0.12359,-0.132954 0.293313,-0.275885 0.493262,-0.415356 0.0285,-0.01989 0.10572,-0.07375 0.171416,-0.119695 0.06575,-0.04591 0.134836,-0.09391 0.153523,-0.106693 0.01869,-0.01267 0.07721,-0.05328 0.130008,-0.09006 0.05282,-0.03679 0.121088,-0.08429 0.151693,-0.105604 0.0707,-0.04917 0.3669,-0.247678 0.422012,-0.282835 0.02296,-0.01465 0.04819,-0.03088 0.0561,-0.03609 0.008,-0.0044 0.02802,-0.01781 0.04471,-0.02802 0.0167,-0.01031 0.05043,-0.03162 0.07502,-0.04745 0.04702,-0.0304 0.232595,-0.143217 0.287974,-0.175013 0.01788,-0.01031 0.05464,-0.03119 0.08168,-0.04647 0.02705,-0.0153 0.08336,-0.04772 0.125169,-0.07201 0.102269,-0.05951 0.460173,-0.236561 0.584008,-0.288979 0.05495,-0.02326 0.138422,-0.05527 0.185503,-0.07111 0.04707,-0.01586 0.09394,-0.03227 0.104122,-0.03652 0.01031,-0.0042 0.02898,-0.0097 0.04174,-0.01216 0.01267,-0.0025 0.03988,-0.0093 0.06027,-0.01469 0.114428,-0.03082 0.226509,-0.04695 0.326284,-0.04695 0.270098,0 0.396655,0.0929 0.511731,0.375639 0.02971,0.07301 0.05927,0.210022 0.07147,0.331434 0.0028,0.02925 0.0093,0.05557 0.014,0.05846 0.0044,0.0032 0.0087,0.67709 0.0087,1.730887 v 1.725519 l -0.02691,0.0802 c -0.04402,0.13117 -0.04979,0.140797 -0.133173,0.222463 -0.06503,0.0637 -0.06716,0.06509 -0.150619,0.09936 -0.10242,0.04211 -0.06801,0.04128 -1.70196,0.04012 -1.203144,-8.61e-4 -1.562732,-0.0036 -1.627769,-0.01297 z m -5.896444,-5.041519 c -0.06429,-0.0095 -0.157596,-0.05292 -0.21031,-0.09804 -0.101215,-0.08665 -0.210413,-0.341931 -0.227472,-0.53188 -0.0015,-0.01787 -0.0074,-0.06168 -0.01282,-0.09737 -0.01911,-0.124806 -0.006,-0.429808 0.02637,-0.612148 0.0057,-0.02549 0.01282,-0.07347 0.01869,-0.106693 0.02022,-0.116611 0.07143,-0.327897 0.09775,-0.403367 0.0072,-0.02053 0.01297,-0.04455 0.01312,-0.05358 7.2e-5,-0.0089 0.0039,-0.02362 0.0088,-0.03246 0.0057,-0.0088 0.01975,-0.04742 0.03327,-0.08566 0.03027,-0.08578 0.07606,-0.205559 0.09745,-0.255063 0.0088,-0.02039 0.02959,-0.0684 0.04606,-0.106704 0.04389,-0.101702 0.157943,-0.318367 0.238478,-0.453044 0.177975,-0.297621 0.410287,-0.590929 0.641043,-0.809352 0.09853,-0.09326 0.306662,-0.266122 0.372496,-0.309375 0.02301,-0.01512 0.04392,-0.03013 0.04651,-0.03339 0.0025,-0.0032 0.02338,-0.01765 0.04637,-0.03198 0.02295,-0.01434 0.08762,-0.05576 0.143757,-0.09202 0.05611,-0.03627 0.112413,-0.07111 0.125208,-0.07742 0.01267,-0.0065 0.03572,-0.01904 0.05102,-0.02828 0.0153,-0.0093 0.06535,-0.03703 0.111278,-0.06171 0.04591,-0.02471 0.09599,-0.05173 0.111278,-0.06005 0.0153,-0.0083 0.05496,-0.02704 0.08812,-0.04163 0.03315,-0.01454 0.08116,-0.03582 0.106693,-0.04727 0.02552,-0.01123 0.06934,-0.03004 0.09736,-0.04132 0.02805,-0.01123 0.05937,-0.024 0.06954,-0.02823 0.01812,-0.0075 0.05324,-0.01905 0.20405,-0.06696 0.04081,-0.01297 0.09922,-0.02859 0.129849,-0.0348 0.03062,-0.0063 0.06775,-0.01494 0.08252,-0.0195 0.0148,-0.0044 0.04063,-0.0083 0.05743,-0.0083 0.0168,0 0.03263,-0.0034 0.03518,-0.0075 0.0025,-0.0041 0.02472,-0.0085 0.04924,-0.0095 0.02448,-0.0012 0.08634,-0.0066 0.137345,-0.01216 0.08426,-0.0095 0.124016,-0.0088 0.347815,0.0065 0.04249,0.0028 0.125019,0.01878 0.166951,0.03214 0.01267,0.0039 0.04405,0.0123 0.06958,0.01853 0.108071,0.02588 0.261989,0.100822 0.387408,0.188583 0.157238,0.110039 0.320498,0.291843 0.395453,0.440324 0.08496,0.168312 0.10308,0.246876 0.109518,0.474763 0.0057,0.175829 -0.009,0.312411 -0.04379,0.42665 -0.0037,0.01267 -0.01202,0.04196 -0.01845,0.06493 -0.0065,0.02296 -0.01467,0.05008 -0.01864,0.06028 -0.0039,0.01031 -0.01458,0.03941 -0.02354,0.06493 -0.05166,0.147442 -0.185287,0.39887 -0.289233,0.544244 -0.02435,0.03407 -0.05863,0.08206 -0.07617,0.106692 -0.146644,0.205693 -0.40941,0.457927 -0.63128,0.605973 -0.03315,0.02213 -0.07698,0.05345 -0.09736,0.06963 -0.02044,0.01615 -0.0707,0.05237 -0.111787,0.08044 -0.07277,0.0498 -0.098,0.06748 -0.248368,0.174026 -0.09099,0.06447 -0.222997,0.15481 -0.307684,0.210581 -0.03572,0.02353 -0.0663,0.04638 -0.06802,0.0508 -0.0017,0.0057 -0.0066,0.008 -0.01077,0.008 -0.0044,0 -0.07592,0.04525 -0.159224,0.100567 -0.0833,0.05529 -0.170238,0.111845 -0.193195,0.125621 -0.02295,0.0138 -0.06887,0.04213 -0.102026,0.06299 -0.0557,0.03503 -0.362422,0.218591 -0.402413,0.240831 -0.0096,0.0057 -0.03261,0.01838 -0.05102,0.02893 -0.07043,0.04033 -0.241537,0.129734 -0.334952,0.175013 -0.172748,0.08372 -0.229059,0.110109 -0.234929,0.110109 -0.0031,0 -0.03217,0.01188 -0.06446,0.02689 -0.03227,0.0148 -0.07309,0.03099 -0.09067,0.036 -0.01757,0.0057 -0.05464,0.0182 -0.08236,0.0293 -0.08143,0.03258 -0.295965,0.08616 -0.37623,0.09393 -0.09459,0.0091 -0.207734,0.0087 -0.275787,-0.0013 z m 8.085347,-0.02426 c -0.03572,-0.0073 -0.07952,-0.01533 -0.09738,-0.01788 -0.01786,-0.0025 -0.04081,-0.008 -0.05102,-0.01188 -0.01031,-0.0041 -0.04986,-0.01681 -0.08812,-0.02823 -0.03826,-0.01123 -0.08417,-0.02701 -0.102038,-0.03463 -0.01785,-0.0076 -0.0408,-0.0172 -0.05102,-0.02125 -0.08397,-0.03344 -0.245388,-0.111579 -0.296799,-0.143657 -0.02038,-0.01267 -0.04337,-0.02598 -0.05102,-0.02943 -0.0335,-0.01508 -0.253505,-0.169292 -0.333585,-0.233829 -0.14574,-0.117413 -0.330961,-0.308238 -0.446855,-0.4603 -0.08404,-0.110259 -0.666464,-0.937859 -0.666464,-0.947009 0,-0.0024 -0.03862,-0.06163 -0.08586,-0.131571 -0.04721,-0.06995 -0.100185,-0.150128 -0.117721,-0.178188 -0.01753,-0.02804 -0.04496,-0.07187 -0.06102,-0.09736 -0.264464,-0.420509 -0.422794,-0.709434 -0.582458,-1.062892 -0.02197,-0.04864 -0.07852,-0.197677 -0.10345,-0.272712 -0.07136,-0.214517 -0.0906,-0.316668 -0.0909,-0.482479 -2.59e-4,-0.139477 0.0057,-0.169762 0.05122,-0.271112 0.01845,-0.04091 0.127456,-0.144327 0.187366,-0.177771 0.104098,-0.05813 0.249468,-0.103254 0.393271,-0.122157 0.04415,-0.0058 0.08471,-0.01409 0.0901,-0.0184 0.0044,-0.0043 0.101354,-0.0066 0.213322,-0.0044 0.16203,0.0023 0.234715,0.008 0.356554,0.02692 0.216309,0.03384 0.239606,0.03846 0.384914,0.07564 0.07142,0.01827 0.137335,0.03505 0.146483,0.03727 0.0091,0.0021 0.03211,0.0089 0.05102,0.01505 0.01891,0.0061 0.04481,0.01427 0.05758,0.01823 0.04099,0.01267 0.245092,0.08611 0.282888,0.101714 0.732242,0.301939 1.305475,0.728841 1.712196,1.275129 0.06875,0.09233 0.230917,0.334567 0.230917,0.344921 0,0.0031 0.0097,0.01871 0.02164,0.03451 0.04795,0.06363 0.202491,0.363321 0.265865,0.515638 0.08884,0.213507 0.09307,0.225368 0.14248,0.398827 0.03346,0.117341 0.05665,0.232875 0.06511,0.323738 0.0024,0.02754 0.0093,0.05296 0.01488,0.05642 0.01339,0.0083 0.0079,0.361372 -0.0066,0.412842 -0.0044,0.02041 -0.01548,0.06843 -0.02164,0.106693 -0.02311,0.142577 -0.07998,0.290575 -0.16569,0.431289 -0.06427,0.105489 -0.09903,0.151034 -0.175408,0.229812 -0.03361,0.03464 -0.06332,0.06608 -0.06606,0.06988 -0.0074,0.0103 -0.146687,0.113628 -0.194957,0.144653 -0.07948,0.05115 -0.188391,0.09528 -0.287697,0.116553 -0.02804,0.0061 -0.06382,0.0148 -0.07948,0.01942 -0.04463,0.01343 -0.369404,0.0081 -0.444538,-0.0072 z"
       id="path1" /></g></svg>
