<?xml version="1.0" encoding="UTF-8" standalone="no"?>
<!-- Created with Inkscape (http://www.inkscape.org/) -->

<svg
   width="17.278814mm"
   height="17.257387mm"
   viewBox="0 0 17.278814 17.257387"
   version="1.1"
   id="svg5"
   inkscape:version="1.4 (e7c3feb100, 2024-10-09)"
   sodipodi:docname=":ferdium:.svg"
   xml:space="preserve"
   xmlns:inkscape="http://www.inkscape.org/namespaces/inkscape"
   xmlns:sodipodi="http://sodipodi.sourceforge.net/DTD/sodipodi-0.dtd"
   xmlns="http://www.w3.org/2000/svg"
   xmlns:svg="http://www.w3.org/2000/svg"><sodipodi:namedview
     id="namedview7"
     pagecolor="#c8c8c8"
     bordercolor="#646464"
     borderopacity="1"
     inkscape:pageshadow="0"
     inkscape:pageopacity="0"
     inkscape:pagecheckerboard="0"
     inkscape:document-units="mm"
     showgrid="true"
     inkscape:zoom="8.080911"
     inkscape:cx="43.868817"
     inkscape:cy="48.200011"
     inkscape:window-width="1896"
     inkscape:window-height="1131"
     inkscape:window-x="0"
     inkscape:window-y="0"
     inkscape:window-maximized="1"
     inkscape:current-layer="layer1"
     inkscape:showpageshadow="2"
     inkscape:deskcolor="#d1d1d1"><inkscape:grid
       type="xygrid"
       id="grid824"
       units="mm"
       spacingx="1"
       spacingy="1"
       originx="-2.9173949"
       originy="-2.4412673" /></sodipodi:namedview><defs
     id="defs2" /><g
     inkscape:label="Layer 1"
     inkscape:groupmode="layer"
     id="layer1"
     transform="translate(-2.917395,-2.4412673)"><path
       style="fill:#000000;stroke-width:1"
       d="m 10.944288,19.691509 c -1.0904708,-0.09568 -1.9885088,-0.32273 -2.9236148,-0.739184 -1.496261,-0.666367 -2.795382,-1.777209 -3.70014,-3.163884 -1.41809,-2.173434 -1.783962,-4.876641 -0.993917,-7.3434453 0.740273,-2.311397 2.422093,-4.212877 4.619786,-5.22317 0.723148,-0.332435 1.55671,-0.581001 2.3378008,-0.697125 0.476987,-0.07091 0.69191,-0.08467 1.301834,-0.08335 0.494426,0.0011 0.652661,0.0081 0.929148,0.04155 1.751516,0.211601 3.260278,0.860048 4.608231,1.980558 0.258427,0.214822 0.817981,0.771969 1.024735,1.020325 0.469416,0.563873 0.823261,1.101605 1.135363,1.72539 1.22193,2.442223 1.21664,5.3157283 -0.01427,7.7516103 -0.733898,1.452332 -1.852942,2.659975 -3.24957,3.506854 -1.049667,0.636489 -2.216501,1.033747 -3.498517,1.191097 -0.235723,0.02894 -1.355425,0.0522 -1.576869,0.03277 z M 8.6156562,13.487076 c 0.399643,-0.135509 0.893378,-0.390398 1.9746578,-1.019408 0.748468,-0.435405 0.927989,-0.526873 1.004891,-0.512006 0.08504,0.01644 0.354376,0.16039 0.942932,0.503957 1.025046,0.598364 1.589396,0.890993 1.968233,1.020573 0.182242,0.06233 0.225919,0.07042 0.380092,0.07035 0.151686,-6.7e-5 0.188402,-0.0067 0.284203,-0.05098 0.256326,-0.118603 0.633284,-0.385234 1.057465,-0.747968 0.327435,-0.280003 1.182425,-1.133816 1.468224,-1.466204 0.448431,-0.521529 0.740657,-0.960489 0.725875,-1.090349 -0.0054,-0.04787 -0.01446,-0.05504 -0.07949,-0.06316 -0.252145,-0.03152 -0.739532,0.08763 -2.164147,0.529065 -0.85736,0.265663 -1.118825,0.335805 -1.264662,0.339267 -0.192193,0.0046 -0.396805,-0.109243 -1.59517,-0.887243 C 12.513493,9.5901767 12.231771,9.4179067 11.952542,9.2775447 11.690325,9.1457347 11.587232,9.1233577 11.444767,9.1673297 11.215554,9.2380797 10.832173,9.4590337 10,9.9999997 8.5996062,10.910348 8.3840752,11.02978 8.1884622,11.003831 c -0.139601,-0.01852 -0.46226,-0.106843 -1.01398,-0.277564 -1.202439,-0.372077 -1.66477,-0.502625 -2.005937,-0.566413 -0.158129,-0.02957 -0.405277,-0.0403 -0.439591,-0.01909 -0.03478,0.02149 -0.01923,0.09304 0.0521,0.239621 0.299102,0.614707 1.713547,2.100702 2.651949,2.7861 0.221818,0.162013 0.417727,0.279354 0.577573,0.34594 0.105794,0.04407 0.136691,0.04875 0.275036,0.04169 0.111042,-0.0057 0.205936,-0.02495 0.330043,-0.06703 z"
       id="path1" /></g></svg>
