<?xml version="1.0" encoding="UTF-8" standalone="no"?>
<svg
   version="1.0"
   width="460.000000pt"
   height="460.000000pt"
   viewBox="0 0 460.000000 460.000000"
   preserveAspectRatio="xMidYMid meet"
   id="svg2"
   sodipodi:docname=":linkwarden:.svg"
   inkscape:version="1.4 (e7c3feb100, 2024-10-09)"
   xmlns:inkscape="http://www.inkscape.org/namespaces/inkscape"
   xmlns:sodipodi="http://sodipodi.sourceforge.net/DTD/sodipodi-0.dtd"
   xmlns="http://www.w3.org/2000/svg"
   xmlns:svg="http://www.w3.org/2000/svg">
  <defs
     id="defs2" />
  <sodipodi:namedview
     id="namedview2"
     pagecolor="#ffffff"
     bordercolor="#666666"
     borderopacity="1.0"
     inkscape:showpageshadow="2"
     inkscape:pageopacity="0.0"
     inkscape:pagecheckerboard="0"
     inkscape:deskcolor="#d1d1d1"
     inkscape:document-units="pt"
     inkscape:zoom="0.63586957"
     inkscape:cx="306.66667"
     inkscape:cy="305.88034"
     inkscape:window-width="1029"
     inkscape:window-height="1131"
     inkscape:window-x="0"
     inkscape:window-y="0"
     inkscape:window-maximized="1"
     inkscape:current-layer="svg2" />
  <metadata
     id="metadata1">
Created by potrace 1.16, written by Peter Selinger 2001-2019
</metadata>
  <g
     transform="translate(0.000000,460.000000) scale(0.100000,-0.100000)"
     fill="#000000"
     stroke="none"
     id="g2"
     style="stroke:#000000;stroke-opacity:1;stroke-width:80.00000003">
    <path
       d="M2590 4083 c-14 -9 -28 -22 -32 -27 -9 -15 -38 -56 -103 -146 -29 -41 -64 -90 -77 -108 -13 -19 -34 -48 -48 -65 -14 -18 -29 -39 -35 -48 -12 -20 -68 -100 -136 -194 -28 -38 -60 -85 -71 -102 -11 -18 -24 -33 -28 -33 -4 0 -10 -8 -14 -17 -3 -10 -24 -43 -46 -73 -23 -30 -58 -80 -78 -110 -20 -30 -40 -59 -45 -65 -10 -13 -69 -96 -132 -185 -27 -39 -61 -86 -75 -104 -40 -54 -62 -85 -112 -155 -87 -124 -143 -203 -158 -226 -8 -13 -36 -50 -63 -84 -26 -34 -47 -65 -47 -70 0 -5 -7 -14 -16 -22 -29 -24 -46 -70 -39 -105 12 -65 4 -64 585 -64 601 0 580 -3 580 87 0 75 15 73 -482 73 -241 0 -438 3 -438 8 0 8 13 29 84 131 26 39 55 76 62 82 8 6 14 16 14 21 0 4 23 38 50 73 27 35 50 68 50 73 0 5 11 19 25 32 14 13 25 28 25 33 0 5 23 38 50 73 28 35 50 66 50 69 0 5 62 91 83 115 8 8 17 22 20 30 4 8 32 49 62 90 50 69 127 179 181 257 11 17 28 39 37 47 8 9 25 32 38 53 13 21 27 43 32 48 11 13 110 150 139 193 13 19 33 46 45 60 l22 27 1 -517 0 -517 25 -26 c34 -33 78 -33 110 0 l25 24 0 653 c0 359 -3 662 -6 674 -6 21 -52 54 -76 54 -7 0 -25 -8 -38 -17z"
       id="path1"
       style="stroke:#000000;stroke-opacity:1;stroke-width:80.00000003" />
    <path
       d="M2233 2510 c-29 -18 -33 -25 -33 -65 0 -81 -12 -79 487 -85 l433 -5 -23 -34 c-12 -19 -26 -42 -32 -51 -22 -35 -90 -125 -97 -128 -5 -2 -8 -8 -8 -14 0 -5 -9 -22 -21 -36 -20 -26 -78 -107 -109 -152 -38 -55 -91 -126 -105 -141 -8 -9 -15 -21 -15 -27 0 -6 -7 -18 -16 -27 -9 -8 -37 -46 -62 -83 -25 -37 -48 -69 -51 -72 -6 -5 -54 -73 -81 -114 -36 -56 -147 -211 -172 -241 -16 -18 -28 -36 -28 -40 0 -3 -6 -12 -12 -19 -7 -8 -31 -39 -53 -71 -22 -31 -51 -72 -65 -90 -14 -19 -36 -50 -50 -70 -14 -20 -35 -49 -47 -63 l-22 -27 -1 518 0 518 -25 24 c-15 16 -36 25 -55 25 -19 0 -40 -9 -55 -25 l-25 -24 0 -653 c0 -359 3 -663 6 -674 3 -12 21 -30 39 -40 28 -15 37 -16 64 -5 16 7 39 27 50 45 11 17 45 65 76 106 30 41 58 82 62 91 8 16 36 53 86 113 15 19 27 37 27 40 0 4 21 35 48 69 45 58 74 99 97 136 6 8 28 40 50 70 22 29 47 64 55 76 42 62 125 181 132 190 5 6 58 80 118 165 60 85 116 164 124 175 9 11 43 58 75 105 33 47 64 90 68 95 5 6 29 39 53 75 25 36 65 92 90 125 25 33 54 73 65 89 11 16 27 39 35 51 43 62 60 91 60 105 0 34 -13 57 -40 73 -25 15 -80 17 -547 17 -499 0 -519 -1 -550 -20z"
       id="path2"
       style="stroke:#000000;stroke-opacity:1;stroke-width:80.00000003" />
  </g>
</svg>
