<?xml version="1.0" encoding="UTF-8" standalone="no"?>
<svg
   id="Layer_2"
   data-name="Layer 2"
   viewBox="0 0 105.93 77.669999"
   version="1.1"
   sodipodi:docname="NotebookLM_logo.svg"
   width="105.93"
   height="77.669998"
   inkscape:version="1.4 (e7c3feb100, 2024-10-09)"
   xmlns:inkscape="http://www.inkscape.org/namespaces/inkscape"
   xmlns:sodipodi="http://sodipodi.sourceforge.net/DTD/sodipodi-0.dtd"
   xmlns="http://www.w3.org/2000/svg"
   xmlns:svg="http://www.w3.org/2000/svg">
  <sodipodi:namedview
     id="namedview11"
     pagecolor="#ffffff"
     bordercolor="#666666"
     borderopacity="1.0"
     inkscape:showpageshadow="2"
     inkscape:pageopacity="0.0"
     inkscape:pagecheckerboard="0"
     inkscape:deskcolor="#d1d1d1"
     showgrid="false"
     inkscape:zoom="1.8718511"
     inkscape:cx="-69.182852"
     inkscape:cy="39.800173"
     inkscape:window-width="1896"
     inkscape:window-height="1131"
     inkscape:window-x="0"
     inkscape:window-y="0"
     inkscape:window-maximized="1"
     inkscape:current-layer="g11" />
  <defs
     id="defs1">
    <style
       id="style1">
      .cls-1 {
        stroke-width: 0px;
      }
    </style>
  </defs>
  <g
     id="Layer_1-2"
     data-name="Layer 1"
     transform="translate(0,-0.1)">
    <g
       id="Layer_1-3"
       data-name="Layer 1">
      <g
         id="g11">
        <path
           class="cls-1"
           d="M 52.96,0.1 C 23.71,0.1 0,23.61 0,52.62 v 25.15 h 9.76 v -2.51 c 0,-11.77 9.61,-21.31 21.48,-21.31 11.87,0 21.48,9.54 21.48,21.31 v 2.51 h 9.76 v -2.51 c 0,-17.11 -13.99,-30.98 -31.24,-30.98 -6.72,0 -12.94,2.1 -18.03,5.69 5.33,-10.51 16.31,-17.73 28.99,-17.73 17.91,0 32.43,14.41 32.43,32.16 v 13.36 h 9.76 V 64.4 C 84.39,41.29 65.5,22.55 42.2,22.55 31.72,22.55 22.14,26.34 14.76,32.61 22.01,19.02 36.39,9.77 52.97,9.77 c 23.86,0 43.2,19.18 43.2,42.84 v 25.15 h 9.76 V 52.61 C 105.92,23.61 82.21,0.1 52.96,0.1 Z"
           id="path11" />
      </g>
    </g>
  </g>
</svg>
