<?xml version="1.0" encoding="UTF-8" standalone="no"?>
<svg
   viewBox="0 0 24 24"
   width="24"
   height="24"
   data-reactroot=""
   version="1.1"
   id="svg1"
   sodipodi:docname=":obsstudio:.svg"
   inkscape:version="1.4.2 (ebf0e940d0, 2025-05-08)"
   xmlns:inkscape="http://www.inkscape.org/namespaces/inkscape"
   xmlns:sodipodi="http://sodipodi.sourceforge.net/DTD/sodipodi-0.dtd"
   xmlns="http://www.w3.org/2000/svg"
   xmlns:svg="http://www.w3.org/2000/svg">
  <defs
     id="defs1" />
  <sodipodi:namedview
     id="namedview1"
     pagecolor="#ffffff"
     bordercolor="#666666"
     borderopacity="1.0"
     inkscape:showpageshadow="2"
     inkscape:pageopacity="0.0"
     inkscape:pagecheckerboard="0"
     inkscape:deskcolor="#d1d1d1"
     inkscape:zoom="14.052083"
     inkscape:cx="12.631579"
     inkscape:cy="6.084507"
     inkscape:window-width="1421"
     inkscape:window-height="1551"
     inkscape:window-x="0"
     inkscape:window-y="0"
     inkscape:window-maximized="1"
     inkscape:current-layer="svg1" />
  <path
     d="M 24,12 C 24,18.6276 18.6276,24 12,24 5.3724,24 0,18.6276 0,12 0,5.3724 5.3724,0 12,0 18.6276,0 24,5.3724 24,12 Z M 18.9624,8.5068 C 18.0612,8.0016 17.094,7.7424 16.1232,7.6932 15.7212,8.4372 15.1248,9.06 14.3976,9.48 13.68,9.894 12.8496,10.11 11.9544,10.0728 11.6028,10.0584 11.2452,10.0212 10.9164,9.9408 9.0036,9.3984 7.6008,7.6464 7.6224,5.5656 7.644,3.3192 9.318,1.404 11.478,1.0716 11.3112,1.0728 11.1492,1.0896 10.9764,1.1004 7.8384,1.6164 5.448,4.4352 5.4936,7.7172 c 0.0132,1.0332 0.2724,2.0004 0.7152,2.8656 0.846,-0.024 1.6824,0.1812 2.4096,0.6012 0.7176,0.414 1.32,1.026 1.7352,1.8192 0.1632,0.3108 0.3036,0.6132 0.3972,0.9276 0.5064,1.938 -0.3096,4.0488 -2.1348,5.0772 -1.956,1.104 -4.452,0.612 -5.82,-1.092 0.084,0.144 0.18,0.276 0.276,0.42 2.016,2.46 5.652,3.12 8.472,1.44 0.888,-0.528 1.596,-1.236 2.124,-2.052 -0.444,-0.72 -0.684,-1.548 -0.684,-2.388 0,-0.828 0.228,-1.656 0.708,-2.412 0.1884,-0.2964 0.366,-0.5568 0.5856,-0.7896 1.4232,-1.4232 3.672,-1.7784 5.484,-0.708 1.9344,1.1424 2.7564,3.5496 1.9644,5.586 0.0828,-0.1452 0.1488,-0.294 0.2256,-0.4488 1.122,-2.976 -0.1248,-6.4548 -2.9892,-8.0568 z"
     id="path1-5"
     style="stroke-width:1" />
</svg>
