<?xml version="1.0" encoding="UTF-8" standalone="no"?>
<svg
   version="1.0"
   width="180.000000pt"
   height="180.000000pt"
   viewBox="0 0 180.000000 180.000000"
   preserveAspectRatio="xMidYMid meet"
   id="svg2"
   sodipodi:docname="readeck.svg"
   inkscape:version="1.4 (e7c3feb100, 2024-10-09)"
   xmlns:inkscape="http://www.inkscape.org/namespaces/inkscape"
   xmlns:sodipodi="http://sodipodi.sourceforge.net/DTD/sodipodi-0.dtd"
   xmlns="http://www.w3.org/2000/svg"
   xmlns:svg="http://www.w3.org/2000/svg">
  <defs
     id="defs2" />
  <sodipodi:namedview
     id="namedview2"
     pagecolor="#ffffff"
     bordercolor="#666666"
     borderopacity="1.0"
     inkscape:showpageshadow="2"
     inkscape:pageopacity="0.0"
     inkscape:pagecheckerboard="0"
     inkscape:deskcolor="#d1d1d1"
     inkscape:document-units="pt"
     inkscape:zoom="2.3166667"
     inkscape:cx="119.78417"
     inkscape:cy="119.78417"
     inkscape:window-width="1896"
     inkscape:window-height="1131"
     inkscape:window-x="0"
     inkscape:window-y="0"
     inkscape:window-maximized="1"
     inkscape:current-layer="svg2"
     showgrid="false" />
  <metadata
     id="metadata1">
Created by potrace 1.16, written by Peter Selinger 2001-2019
</metadata>
  <g
     transform="translate(0.000000,180.000000) scale(0.100000,-0.100000)"
     fill="#000000"
     stroke="none"
     id="g2">
    <path
       d="M0 900 l0 -900 900 0 900 0 0 900 0 900 -900 0 -900 0 0 -900z m1103 530 l367 -155 0 -211 0 -211 -150 -69 c-82 -37 -146 -71 -142 -75 4 -4 72 -37 151 -73 79 -37 150 -70 159 -75 11 -6 -9 -23 -82 -66 -89 -53 -97 -61 -93 -84 16 -82 29 -182 25 -187 -3 -2 -140 58 -304 134 l-299 139 -5 -121 -5 -121 -188 -3 -187 -2 2 566 3 566 185 103 c102 57 188 103 191 102 3 -1 171 -72 372 -157z"
       id="path1" />
    <path
       d="M730 1065 l0 -135 23 10 c70 28 258 119 258 125 0 6 -265 135 -277 135 -2 0 -4 -61 -4 -135z"
       id="path2" />
  </g>
  <path
     style="font-variation-settings:normal;opacity:1;vector-effect:none;fill:none;fill-opacity:1;stroke:#000000;stroke-width:0.749999;stroke-linecap:round;stroke-linejoin:round;stroke-miterlimit:4;stroke-dasharray:none;stroke-dashoffset:0;stroke-opacity:1;-inkscape-stroke:none;stop-color:#000000;stop-opacity:1"
     d="M 35.5,41.8 147,94.700003"
     id="path3" />
  <path
     style="font-variation-settings:normal;opacity:1;vector-effect:none;fill:none;fill-opacity:1;stroke:#000000;stroke-width:0.749999;stroke-linecap:round;stroke-linejoin:round;stroke-miterlimit:4;stroke-dasharray:none;stroke-dashoffset:0;stroke-opacity:1;-inkscape-stroke:none;stop-color:#000000;stop-opacity:1"
     d="M 73.5,130.3 73,87"
     id="path4" />
  <path
     style="font-variation-settings:normal;opacity:1;vector-effect:none;fill:none;fill-opacity:1;stroke:#000000;stroke-width:0.749999;stroke-linecap:round;stroke-linejoin:round;stroke-miterlimit:4;stroke-dasharray:none;stroke-dashoffset:0;stroke-opacity:1;-inkscape-stroke:none;stop-color:#000000;stop-opacity:1"
     d="M 117.8,109.1 73,87"
     id="path5" />
</svg>
