<?xml version="1.0" encoding="UTF-8" standalone="no"?>
<!-- Created with Inkscape (http://www.inkscape.org/) -->

<svg
   width="33.936039mm"
   height="33.860073mm"
   viewBox="0 0 33.936039 33.860073"
   version="1.1"
   id="svg5"
   inkscape:version="1.4 (e7c3feb100, 2024-10-09)"
   sodipodi:docname="researchrabbit.svg"
   xml:space="preserve"
   xmlns:inkscape="http://www.inkscape.org/namespaces/inkscape"
   xmlns:sodipodi="http://sodipodi.sourceforge.net/DTD/sodipodi-0.dtd"
   xmlns="http://www.w3.org/2000/svg"
   xmlns:svg="http://www.w3.org/2000/svg"><sodipodi:namedview
     id="namedview7"
     pagecolor="#c8c8c8"
     bordercolor="#646464"
     borderopacity="1"
     inkscape:pageshadow="0"
     inkscape:pageopacity="0"
     inkscape:pagecheckerboard="0"
     inkscape:document-units="mm"
     showgrid="true"
     inkscape:zoom="3.4105707"
     inkscape:cx="-16.126333"
     inkscape:cy="92.799718"
     inkscape:window-width="2856"
     inkscape:window-height="1551"
     inkscape:window-x="0"
     inkscape:window-y="0"
     inkscape:window-maximized="1"
     inkscape:current-layer="layer1"
     inkscape:showpageshadow="2"
     inkscape:deskcolor="#d1d1d1"><inkscape:grid
       type="xygrid"
       id="grid824"
       units="mm"
       spacingx="1"
       spacingy="1"
       originx="0.21859619"
       originy="-1.9131881" /></sodipodi:namedview><defs
     id="defs2" /><g
     inkscape:label="Layer 1"
     inkscape:groupmode="layer"
     id="layer1"
     transform="translate(0.21859619,-1.9131881)"><path
       style="fill:#000000"
       d="M 11.961021,35.280516 C 10.148042,34.710176 7.6209387,33.494086 7.2035056,32.99111 7.0340286,32.786903 6.7823772,32.619824 6.6442803,32.619824 c -0.1380969,0 -0.4045971,-0.148828 -0.5922226,-0.330729 -0.1876255,-0.181901 -0.8041992,-0.771627 -1.3701636,-1.310502 -1.282635,-1.221242 -1.6904847,-1.70844 -1.6904847,-2.019371 0,-0.133845 -0.1670787,-0.382017 -0.371286,-0.551494 C 2.0907591,27.968395 0.89606141,25.440863 0.31555631,23.53213 -0.45338979,21.003792 -0.38226019,16.362645 0.46522381,13.766449 2.3245066,8.0706914 6.3184942,4.1805954 12.119533,2.4152914 c 2.199975,-0.669471 7.060442,-0.669471 9.260417,0 5.801039,1.765304 9.795027,5.6554 11.65431,11.3511576 0.840726,2.575494 0.918257,7.239038 0.161682,9.725251 -1.765304,5.80104 -5.6554,9.795027 -11.351158,11.65431 -1.691762,0.552247 -2.464962,0.645222 -5.194961,0.624679 -2.268295,-0.01707 -3.641116,-0.160584 -4.688802,-0.490173 z m 7.059318,-0.01486 h 0.904402 v -1.611251 -1.611251 l -2.315104,0.173138 c -2.461575,0.184092 -4.387983,0.404885 -4.499446,0.515698 -0.185341,0.184261 4.34943,2.785519 4.652949,2.669048 0.194038,-0.07446 0.759778,-0.135382 1.257199,-0.135382 z m -5.313306,-1.034342 c -0.873125,-0.563098 -1.618092,-0.996466 -1.655483,-0.963038 -0.03739,0.03343 0.006,0.430481 0.09633,0.882341 0.17321,0.866053 0.483364,1.016024 2.220612,1.073745 l 0.926041,0.03077 z m 9.082999,0.07269 c 2.881032,-1.13789 3.11434,-1.534425 1.037313,-1.763037 -0.763984,-0.08409 -1.776015,-0.234692 -2.248958,-0.334672 l -0.859896,-0.181783 v 1.488281 c 0,0.818555 0.06899,1.488281 0.153312,1.488281 0.08432,0 0.947524,-0.313682 1.918229,-0.69707 z M 11.17964,33.629858 C 10.859349,32.513071 10.821808,32.48678 8.6799504,31.87926 6.0574838,31.13542 5.6170082,31.050115 5.7826686,31.318159 c 0.4022127,0.650794 4.5669864,3.105941 5.3262074,3.139816 0.225613,0.01007 0.245248,-0.219724 0.07076,-0.828117 z M 28.043103,30.966179 C 38.237783,21.346572 32.716616,4.1783244 18.869996,2.4421044 11.283874,1.4908854 4.1357152,5.7207484 1.3064007,12.835215 c -1.25576849,3.157699 -1.55068049,8.402252 -0.47297569,8.41114 3.12037789,0.02573 6.44963489,0.469978 9.15131839,1.221119 2.0758176,0.577133 2.1473096,0.545942 2.0487266,-0.893839 -0.08421,-1.229812 0.152271,-2.118229 0.808687,-3.038124 0.281676,-0.394738 0.139795,-0.651507 -1.023393,-1.852083 C 11.07604,15.916832 9.5757534,13.920398 8.4847914,12.246908 6.0459158,8.5057774 5.5523642,7.5680964 5.9067875,7.3490514 c 0.302894,-0.187199 3.0596759,0.317667 3.7653509,0.689571 0.3402436,0.179315 0.4630196,0.14233 0.4630196,-0.139481 0,-0.621764 0.447109,-0.724335 1.648204,-0.378112 1.547269,0.446009 1.711418,0.579471 3.859985,3.1383796 1.982337,2.36093 2.798456,3.772744 3.095171,5.354368 0.192248,1.024769 0.291179,1.077526 2.641432,1.408591 1.460844,0.205779 3.551935,1.155228 4.28782,1.946863 0.261074,0.280852 0.936475,1.385662 1.500892,2.455134 l 1.026212,1.944494 -0.836579,1.657254 c -0.55575,1.100934 -1.062886,1.743295 -1.510739,1.913569 -0.370788,0.140973 -0.628439,0.344879 -0.572556,0.453125 0.667498,1.292963 0.981703,2.303752 1.034764,3.328806 0.03512,0.678495 0.108268,1.233628 0.162547,1.233628 0.05428,0 0.761136,-0.625078 1.570792,-1.389062 z M 16.134727,31.415964 19.356171,31.231268 18.383685,30.15163 C 16.36741,27.913195 13.11398,24.682325 12.87619,24.682325 c -0.135945,0 -0.265905,0.26789 -0.2888,0.595312 -0.04857,0.694628 -0.561405,4.747051 -0.740225,5.849284 -0.109133,0.672687 -0.05712,0.74049 0.47173,0.614897 0.326914,-0.07764 2.044038,-0.224271 3.815832,-0.325854 z M 25.38945,30.633446 C 25.29954,29.977501 25.020611,29.127383 24.769602,28.744294 L 24.313221,28.04777 22.89742,29.568833 c -0.778691,0.836585 -1.355422,1.581443 -1.281625,1.65524 0.229734,0.229733 1.832874,0.546572 2.908972,0.574918 l 1.02815,0.02708 z m -15.254292,0.409179 c 0,-0.408605 -3.7299857,-7.949224 -3.9244127,-7.933676 -0.1638294,0.0131 -2.9798041,4.24535 -3.173953,4.77027 -0.2261747,0.611508 1.0724549,1.798753 2.4026337,2.196558 4.4132124,1.31982 4.695732,1.377991 4.695732,0.966848 z m 12.276663,-2.049648 1.416902,-1.510181 -1.356679,-0.471762 C 21.725871,26.751565 20.847655,26.399092 20.520452,26.227761 20.19325,26.05643 19.860991,25.980798 19.782098,26.05969 c -0.135772,0.135772 0.603564,3.822837 0.851221,4.24503 0.196575,0.335113 0.316032,0.247007 1.778502,-1.311743 z m -10.848198,-2.18956 c 0.213604,-1.671056 0.357456,-3.069199 0.31967,-3.106986 -0.03779,-0.03779 -0.654935,-0.187103 -1.37144,-0.331815 C 9.7953494,23.219904 8.7655004,22.994124 8.2233022,22.862881 7.3563961,22.653042 7.2626582,22.676575 7.4461689,23.05798 c 1.4325575,2.977396 3.6231841,7.150077 3.6695421,6.989698 0.03275,-0.113288 0.234307,-1.573206 0.447912,-3.244261 z m 7.801622,2.046095 c -0.330331,-1.639267 -0.703696,-3.137324 -0.807895,-3.241523 -0.04991,-0.04991 -1.01606,-0.333109 -2.147,-0.62933 -1.130939,-0.296221 -2.201842,-0.624425 -2.379785,-0.729341 -0.177942,-0.104916 0.986156,1.139853 2.586885,2.766154 1.600729,1.626301 2.92481,2.957273 2.942403,2.957715 0.01759,4.42e-4 -0.06998,-0.505212 -0.194608,-1.123675 z M 4.0769477,24.735071 5.5593609,22.433366 4.0769477,22.263645 C 3.2616204,22.170299 2.0949363,22.081002 1.4843164,22.065208 l -1.11021799,-0.02872 0.3834112,1.291086 c 0.49705709,1.673773 1.41330019,3.739715 1.65096839,3.722598 0.102331,-0.0074 0.8531424,-1.049167 1.6684697,-2.315104 z M 26.32144,25.608366 c 0.401209,-0.582083 0.733427,-1.14763 0.738261,-1.25677 0.02237,-0.50503 -3.802983,0.01517 -5.787845,0.787074 -0.58935,0.229196 -0.509785,0.300428 1.058334,0.94748 2.297917,0.948189 3.072269,0.855493 3.99125,-0.477784 z m -8.950404,-1.935354 c -1.065438,-1.622613 -1.370075,-1.904614 -2.746295,-2.542225 -1.615596,-0.748517 -1.833111,-0.634817 -1.839698,0.961652 -0.0039,0.933742 0.0512,0.996458 1.120428,1.276465 0.618463,0.161961 1.66026,0.455913 2.315104,0.653227 1.659387,0.499998 1.699929,0.487695 1.150461,-0.349119 z m 1.841959,-2.492384 C 17.020243,20.895051 16.810886,21.209068 18,22.999999 l 0.961423,1.448008 0.87214,-1.536487 0.87214,-1.536487 z m 3.835206,2.593372 1.211164,-0.308971 -1.175125,-0.84391 c -0.646318,-0.464151 -1.26702,-0.874869 -1.379337,-0.912706 -0.112317,-0.03784 -0.56495,0.56283 -1.005851,1.334818 l -0.801637,1.403615 0.969811,-0.181938 c 0.533396,-0.100065 1.514835,-0.320974 2.180975,-0.490908 z m 3.166424,-1.954679 -0.820104,-1.540087 -1.411973,0.393003 c -0.776586,0.216151 -1.410873,0.462706 -1.409528,0.547899 0.0056,0.352063 3.094703,2.094852 3.750986,2.116177 l 0.710724,0.0231 z m -9.611639,-1.082343 c 0.203374,-0.329066 -2.469243,-1.94355 -2.926735,-1.767994 -0.647504,0.248471 -0.396891,0.561292 1.02297,1.276895 1.574776,0.79368 1.697236,0.82527 1.903765,0.491099 z m 5.499917,-1.907321 c 0.129059,-0.345487 -0.07965,-0.458422 -1.075153,-0.581769 -0.679415,-0.08418 -1.614754,-0.232068 -2.07853,-0.328634 -0.837515,-0.174385 -0.843791,-0.167752 -0.926042,0.978644 l -0.08281,1.154219 1.5875,0.271115 c 1.544004,0.263686 1.598835,0.252812 2.001195,-0.396875 0.227533,-0.367395 0.485762,-0.86091 0.573842,-1.0967 z m 2.021266,0.831165 c 0.279771,-0.150297 0.21915,-0.295729 -0.264467,-0.634467 -0.586183,-0.410579 -0.649189,-0.409725 -0.958282,0.01298 -0.540712,0.739469 -0.416879,1.207049 0.264467,0.998603 0.327422,-0.10017 0.758649,-0.269874 0.958282,-0.37712 z M 17.278908,18.77085 c 0,-0.869745 -0.01597,-0.881795 -0.964575,-0.727604 -1.147669,0.186548 -1.190519,0.449283 -0.181748,1.114384 1.023438,0.674772 1.146323,0.633309 1.146323,-0.38678 z m -2.551625,-2.621337 0.726472,-0.992188 -0.741069,0.01525 c -0.407588,0.0084 -1.196946,0.09768 -1.754129,0.198438 l -1.01306,0.183189 0.857158,1.002568 c 0.471437,0.551413 0.933883,0.9086 1.027657,0.79375 0.09377,-0.11485 0.497411,-0.655302 0.896971,-1.201005 z m 1.650163,0.962376 c 0.726075,-0.182233 0.747112,-0.266866 0.276978,-1.114264 l -0.34115,-0.614908 -0.707808,0.927984 c -0.811379,1.063773 -0.885014,1.35249 -0.286353,1.122762 0.2318,-0.08895 0.70805,-0.233659 1.058333,-0.321574 z m 1.377643,-1.504998 c -0.16521,-0.538303 -0.399468,-0.978732 -0.520573,-0.978732 -0.31177,0 -0.278238,0.194577 0.21132,1.226245 0.545914,1.150427 0.700356,1.026818 0.309253,-0.247513 z m -3.841233,-1.200349 1.265155,-0.175258 -2.249218,-2.235035 c -1.23707,-1.229269 -2.320231,-2.1640216 -2.407025,-2.0772276 -0.08679,0.08679 -0.0418,0.6163086 0.09999,1.1767006 0.14179,0.560392 0.335505,1.584442 0.430477,2.275666 0.19243,1.400543 0.200878,1.4036 2.860617,1.035154 z m 2.529466,-1.365883 c -0.322765,-0.436563 -0.627043,-0.793751 -0.676174,-0.793751 -0.04913,0 0.09538,0.357188 0.321135,0.793751 0.225755,0.436562 0.530034,0.79375 0.676174,0.79375 0.14614,0 0.0016,-0.357188 -0.321135,-0.79375 z M 9.5841014,10.643906 C 9.4337414,9.7065474 9.2283274,8.8658264 9.1276264,8.7756384 9.0269254,8.6854484 8.5188604,8.5474844 7.9985924,8.4690484 L 7.0526507,8.3264374 8.3954674,10.3957 c 0.738549,1.138095 1.369637,2.04299 1.402417,2.010879 0.03278,-0.03211 -0.06342,-0.825314 -0.213783,-1.762673 z m 5.0219376,1.272273 C 13.262746,9.3385474 13.037985,9.0867124 12.357483,9.3967694 l -0.653654,0.297824 1.530769,1.3983426 c 0.841923,0.769089 1.564723,1.402891 1.606223,1.40845 0.0415,0.0056 -0.06415,-0.257785 -0.234782,-0.585207 z M 11.837815,8.5150184 c -0.230879,-0.373572 -0.644323,-0.276222 -0.644323,0.151712 0,0.23603 0.155204,0.329014 0.395355,0.236859 0.217445,-0.08344 0.329481,-0.258299 0.248968,-0.388571 z"
       id="path2" /></g></svg>
