<?xml version="1.0" encoding="UTF-8" standalone="no"?>
<!-- Created with Inkscape (http://www.inkscape.org/) -->

<svg
   width="30.924719mm"
   height="30.461958mm"
   viewBox="0 0 30.924719 30.461958"
   version="1.1"
   id="svg5"
   inkscape:version="1.4 (e7c3feb100, 2024-10-09)"
   sodipodi:docname=":webex:.svg"
   xml:space="preserve"
   inkscape:export-filename=":webex:.png"
   inkscape:export-xdpi="1200"
   inkscape:export-ydpi="1200"
   xmlns:inkscape="http://www.inkscape.org/namespaces/inkscape"
   xmlns:sodipodi="http://sodipodi.sourceforge.net/DTD/sodipodi-0.dtd"
   xmlns="http://www.w3.org/2000/svg"
   xmlns:svg="http://www.w3.org/2000/svg"><sodipodi:namedview
     id="namedview7"
     pagecolor="#c8c8c8"
     bordercolor="#646464"
     borderopacity="1"
     inkscape:pageshadow="0"
     inkscape:pageopacity="0"
     inkscape:pagecheckerboard="0"
     inkscape:document-units="mm"
     showgrid="true"
     inkscape:zoom="3.8731959"
     inkscape:cx="56.671546"
     inkscape:cy="76.809954"
     inkscape:window-width="2856"
     inkscape:window-height="1551"
     inkscape:window-x="0"
     inkscape:window-y="0"
     inkscape:window-maximized="1"
     inkscape:current-layer="g52"
     inkscape:showpageshadow="2"
     inkscape:deskcolor="#d1d1d1"><inkscape:grid
       type="xygrid"
       id="grid824"
       units="mm"
       spacingx="1"
       spacingy="1"
       originx="-34.537497"
       originy="-10.823685" /></sodipodi:namedview><defs
     id="defs2" /><g
     inkscape:label="Layer 1"
     inkscape:groupmode="layer"
     id="layer1"
     transform="translate(-34.537498,-10.823685)"><g
       id="g52"
       transform="matrix(0.26458333,0,0,0.26458333,-18.085767,-9.7589895)"><g
         id="g92">
</g><path
         style="fill:#000000"
         d="m 235.68553,173.04788 c -1.99039,-0.12334 -3.65235,-0.44521 -5.56,-1.0768 -3.62205,-1.1992 -6.77879,-3.23423 -9.76169,-6.293 -1.79667,-1.84237 -2.96524,-3.39888 -4.37709,-5.83023 -1.97971,-3.40925 -3.34414,-6.20631 -4.78051,-9.8 -3.2855,-8.22008 -5.82096,-18.63478 -6.95789,-28.58039 -0.0868,-0.75921 -0.21709,-1.69521 -0.28956,-2.08 -0.1729,-0.91803 -0.11903,-2.43681 0.11809,-3.32986 0.44335,-1.66969 1.92075,-3.80757 3.32865,-4.81675 1.42665,-1.02261 3.32886,-1.51883 5.56,-1.45041 1.30504,0.04 2.03867,0.21576 3.2582,0.78053 1.553,0.7192 3.00624,2.01361 3.63597,3.2386 0.62513,1.21605 1.00135,2.69014 1.18378,4.63828 0.42477,4.53613 1.49276,10.40409 2.87566,15.8 0.9807,3.82657 2.6883,10.23971 2.72639,10.23937 0.022,-2e-4 0.112,-0.23672 0.2,-0.5256 l 0.16,-0.52525 0.47188,1.10574 c 1.05575,2.47393 2.75151,5.7046 3.82906,7.2949 1.06284,1.5686 2.39245,2.77801 3.85906,3.51022 1.57711,0.78737 3.56607,0.64047 5.29424,-0.39101 1.03513,-0.61783 2.30525,-2.06897 3.10451,-3.54696 0.35553,-0.65744 1.54098,-3.56355 2.08168,-5.1032 0.16646,-0.47399 0.31538,-0.84907 0.33094,-0.83351 0.0156,0.0156 0.31411,1.01537 0.66344,2.2218 2.35967,8.14916 4.34107,12.91386 7.05744,16.97114 0.34526,0.51571 0.62775,0.95911 0.62775,0.98534 0,0.22918 -1.71549,1.82781 -2.9772,2.7744 -2.30142,1.7266 -5.6248,3.26569 -8.51804,3.94478 -2.33834,0.54885 -5.05989,0.80706 -7.14476,0.67787 z m 40.47574,-0.32175 c -4.10616,-0.34568 -8.5591,-1.81075 -11.59574,-3.81514 -3.63114,-2.39681 -7.02099,-6.61617 -9.28959,-11.5628 -1.25969,-2.74673 -2.70161,-6.88559 -4.06228,-11.66034 -0.21943,-0.77 -1.19185,-4.568 -2.16093,-8.44 -2.82221,-11.27631 -3.5554,-13.61569 -5.46591,-17.44 -0.95616,-1.91398 -1.22579,-2.30256 -2.55621,-3.68384 -0.6185,-0.64216 -0.8298,-0.81361 -1.0042,-0.81483 -0.12148,-8.6e-4 -0.52602,-0.11596 -0.89898,-0.25579 -0.9761,-0.36598 -2.07586,-0.47925 -2.96062,-0.30494 -2.52835,0.49811 -4.42529,2.67511 -7.23174,8.2994 -0.45008,0.902 -0.99399,2.045 -1.20869,2.54 -0.21469,0.495 -0.41295,0.9 -0.44057,0.9 -0.16125,0 -0.99911,-5.53502 -1.36237,-9 -0.28482,-2.71674 -1.06119,-5.15731 -2.18202,-6.85932 -0.92352,-1.4024 -2.06199,-2.49764 -3.79949,-3.65521 l -0.74361,-0.49541 0.41718,-0.49503 c 1.29368,-1.53508 3.55835,-3.53705 5.27003,-4.65871 2.61654,-1.714597 6.00534,-3.031687 8.92,-3.466827 2.51675,-0.37574 5.81957,-0.26433 8.28,0.27928 3.22537,0.71262 6.90226,2.543417 9.75902,4.859207 4.11859,3.33868 7.40525,8.70591 9.91248,16.18742 0.72125,2.1522 1.53036,5.11806 3.72805,13.66562 2.73442,10.63503 3.63435,13.62439 4.99551,16.59385 0.63209,1.37896 1.36914,2.70993 1.88565,3.40513 0.56741,0.76373 1.70808,1.86644 2.27779,2.20201 0.96809,0.57022 1.40083,0.67606 2.7615,0.67544 1.34588,-6.2e-4 1.7343,-0.083 2.74415,-0.58238 2.17953,-1.0777 4.11926,-3.70541 6.41855,-8.69507 0.9271,-2.0119 1.08601,-2.38877 1.75405,-4.16 0.79588,-2.11015 1.82245,-5.30404 2.3228,-7.22668 0.0723,-0.27783 0.11706,-0.33573 0.22534,-0.29152 0.47947,0.19577 2.1015,0.44659 3.17511,0.49098 3.69084,0.1526 7.44237,-1.11875 9.71044,-3.29074 1.64323,-1.57363 3.31816,-4.24081 3.8445,-6.12204 0.85336,-3.05001 0.83154,-5.79263 -0.0674,-8.47445 -0.51368,-1.53247 -2.02004,-4.72278 -3.18691,-6.74956 -0.1976,-0.34321 -0.33925,-0.64404 -0.31478,-0.6685 0.0245,-0.0245 0.28655,0.0337 0.58241,0.1293 1.69762,0.54844 3.88604,2.19524 4.84446,3.64547 1.00268,1.5172 1.34493,2.72572 1.34737,4.75774 0.001,1.02578 -0.0422,1.50764 -0.40716,4.52 -0.40426,3.33639 -1.45611,9.24909 -2.18698,12.29356 -2.30532,9.60287 -5.01338,16.90757 -8.57024,23.11737 -1.99663,3.48584 -3.04842,4.92732 -5.07283,6.95232 -3.64959,3.65066 -7.873,6.08627 -12.04288,6.94504 -1.91404,0.39419 -4.54138,0.56344 -6.36426,0.40999 z m 16.92426,-42.51614 c -0.63788,-0.1178 -1.4365,-0.3761 -1.91429,-0.61915 -0.17914,-0.0911 -0.89032,-0.55742 -1.58039,-1.03621 -1.71068,-1.18689 -1.90584,-1.45004 -3.29688,-4.44546 -0.36303,-0.78172 -0.91309,-1.87132 -1.22235,-2.42132 -0.85151,-1.51433 -2.53137,-4.02019 -3.04751,-4.54599 -1.65728,-1.68828 -3.85578,-2.47479 -5.74538,-2.05541 -1.65695,0.36775 -3.12085,1.62435 -4.30702,3.69712 -0.76645,1.33933 -2.22429,4.8147 -2.85348,6.80246 -0.10066,0.31799 -0.19576,0.56543 -0.21133,0.54985 -0.0156,-0.0156 -0.34851,-1.21667 -0.73985,-2.6691 -0.87679,-3.2541 -1.10341,-4.0354 -1.6414,-5.65893 -1.46457,-4.41975 -3.44682,-8.70684 -5.44222,-11.77016 l -0.57984,-0.89016 1.01097,-0.99752 c 1.51459,-1.49444 2.69732,-2.42222 4.35246,-3.41425 2.52872,-1.515617 6.21528,-2.656487 9.6096,-2.973857 1.24487,-0.1164 3.89594,-0.0549 5.04891,0.11718 4.91189,0.73296 9.12845,2.778057 12.89855,6.255997 2.60043,2.39892 5.49925,6.57879 7.81788,11.27277 1.13413,2.29602 1.6579,3.56879 1.8436,4.48 0.41318,2.02739 0.0872,4.30562 -0.85135,5.94948 -0.58744,1.02891 -1.59199,2.33926 -2.12823,2.77608 -1.5834,1.28983 -4.76435,2.01323 -7.02045,1.59658 z"
         id="path1"
         inkscape:transform-center-x="19.998421"
         inkscape:transform-center-y="18.240994" /></g></g></svg>
