<?xml version="1.0" encoding="UTF-8" standalone="no"?>
<svg
   viewBox="0 0 24 24"
   width="24"
   height="24"
   data-reactroot=""
   version="1.1"
   id="svg1"
   sodipodi:docname=":xournal:.svg"
   inkscape:version="1.4 (e7c3feb100, 2024-10-09)"
   xmlns:inkscape="http://www.inkscape.org/namespaces/inkscape"
   xmlns:sodipodi="http://sodipodi.sourceforge.net/DTD/sodipodi-0.dtd"
   xmlns="http://www.w3.org/2000/svg"
   xmlns:svg="http://www.w3.org/2000/svg">
  <defs
     id="defs1" />
  <sodipodi:namedview
     id="namedview1"
     pagecolor="#ffffff"
     bordercolor="#666666"
     borderopacity="1.0"
     inkscape:showpageshadow="2"
     inkscape:pageopacity="0.0"
     inkscape:pagecheckerboard="0"
     inkscape:deskcolor="#d1d1d1"
     inkscape:zoom="5.9367507"
     inkscape:cx="6.0639232"
     inkscape:cy="3.284625"
     inkscape:window-width="1029"
     inkscape:window-height="559"
     inkscape:window-x="0"
     inkscape:window-y="0"
     inkscape:window-maximized="1"
     inkscape:current-layer="svg1" />
  <path
     style="font-variation-settings:normal;vector-effect:none;fill:#000000;fill-opacity:1;stroke:none;stroke-width:1;stroke-linecap:round;stroke-linejoin:round;stroke-miterlimit:4;stroke-dasharray:none;stroke-dashoffset:0;stroke-opacity:1;-inkscape-stroke:none;stop-color:#000000"
     d="m 3.5607476,6.0968973 c 0,0 1.584059,-2.0706305 3.208941,-2.0929923 1.378247,-0.018966 1.762646,0.6078291 2.672117,3.2799193 0.8851314,2.6005629 1.5446674,5.4528257 1.5446674,5.4528257 0,0 -4.1305604,6.548171 -5.3836504,6.639752 -1.253091,0.09159 -1.486321,-1.028997 -2.552593,-0.961619 -1.099307,0.06947 -1.239005,0.394973 -1.471069,0.837657 -0.39199,0.747767 0.03048,1.866814 0.91229,2.37052 0.881806,0.503705 2.233489,0.448775 2.911652,0.150309 1.103564,-0.485691 5.9082464,-7.983418 5.9082464,-7.983418 0,0 1.65578,7.606674 3.455954,8.056512 1.479032,0.369582 2.73309,-0.01898 3.47566,-0.66005 0.742572,-0.64108 2.396953,-2.222032 2.396953,-2.222032 L 20.09658,18.549857 c 0,0 -1.316286,1.664202 -3.120784,1.297873 -1.804498,-0.366334 -3.715194,-9.125901 -3.715194,-9.125901 0,0 3.680528,-6.112002 4.887207,-6.1577928 1.20668,-0.045788 1.563893,1.4412783 3.002626,1.1207382 1.438731,-0.3205377 1.206682,-1.0532018 1.113859,-1.8774474 -0.09282,-0.8242444 -1.768758,-2.2706023 -3.625189,-1.5837313 -1.856432,0.6868721 -5.665414,7.5421692 -5.665414,7.5421692 0,0 -1.556476,-7.5484962 -3.7536424,-7.7359684 -2.314354,-0.1974721 -3.214615,0.6342008 -3.854909,1.0929602 -1.010469,0.7239823 -2.407732,2.6078097 -2.407732,2.6078097 z"
     id="path1-5"
     sodipodi:nodetypes="csscssssscssccscsssscsscc" />
</svg>
